<svg viewBox="0 0 100 89" fill="none" xmlns="http://www.w3.org/2000/svg">
<g>
<path d="M99.699 57.7199C100.612 44.9913 79.099 33.0551 51.6485 31.0597C24.1979 29.0643 1.20472 37.7652 0.291749 50.4938C-0.62122 63.2224 20.8918 75.1586 48.3423 77.1541C75.7929 79.1495 98.7861 70.4485 99.699 57.7199Z" stroke="url(#paint0_linear_403_8185)" stroke-width="0.8" stroke-miterlimit="10"></path>
<path d="M97.872 55.0628C98.2303 42.6182 76.76 31.895 49.9168 31.1118C23.0737 30.3287 1.02254 39.7821 0.66429 52.2268C0.306042 64.6714 21.7763 75.3946 48.6195 76.1778C75.4627 76.9609 97.5138 67.5074 97.872 55.0628Z" stroke="url(#paint1_linear_403_8185)" stroke-width="0.8" stroke-miterlimit="10"></path>
<path d="M48.9153 75.2139C75.1466 74.7852 96.2524 64.5782 96.0562 52.4158C95.8601 40.2535 74.4364 30.7414 48.2051 31.1701C21.9737 31.5988 0.867967 41.8058 1.06408 53.9682C1.2602 66.1305 22.6839 75.6425 48.9153 75.2139Z" stroke="url(#paint2_linear_403_8185)" stroke-width="0.8" stroke-miterlimit="10"></path>
<path d="M49.199 74.2416C74.8214 72.6007 94.9838 61.6398 94.2331 49.7598C93.4824 37.8797 72.1028 29.5793 46.4804 31.2202C20.858 32.8612 0.695489 43.8221 1.4462 55.7021C2.19692 67.5821 23.5766 75.8825 49.199 74.2416Z" stroke="url(#paint3_linear_403_8185)" stroke-width="0.8" stroke-miterlimit="10"></path>
<path d="M49.4764 73.274C74.4928 70.4224 93.7153 58.7103 92.4111 47.1143C91.1068 35.5183 69.7697 28.4295 44.7533 31.2811C19.7369 34.1327 0.51433 45.8448 1.81857 57.4408C3.12282 69.0368 24.4599 76.1256 49.4764 73.274Z" stroke="url(#paint4_linear_403_8185)" stroke-width="0.8" stroke-miterlimit="10"></path>
<path d="M49.7494 72.3131C74.1553 68.25 92.4333 55.7829 90.5745 44.467C88.7156 33.151 67.4238 27.2715 43.0179 31.3345C18.612 35.3976 0.33403 47.8648 2.19286 59.1807C4.05169 70.4966 25.3435 76.3762 49.7494 72.3131Z" stroke="url(#paint5_linear_403_8185)" stroke-width="0.8" stroke-miterlimit="10"></path>
<path d="M50.0362 71.3406C73.8345 66.0643 91.1705 52.8449 88.7574 41.8141C86.3443 30.7834 65.0958 26.1184 41.2976 31.3947C17.4993 36.671 0.163242 49.8904 2.57635 60.9212C4.98946 71.952 26.238 76.6169 50.0362 71.3406Z" stroke="url(#paint6_linear_403_8185)" stroke-width="0.8" stroke-miterlimit="10"></path>
<path d="M50.3148 70.3765C73.5022 63.8897 89.8938 49.9163 86.9263 39.1659C83.9588 28.4156 62.756 24.9593 39.5686 31.4461C16.3811 37.9328 -0.0103979 51.9063 2.95708 62.6566C5.92456 73.407 27.1273 76.8633 50.3148 70.3765Z" stroke="url(#paint7_linear_403_8185)" stroke-width="0.8" stroke-miterlimit="10"></path>
<path d="M50.6021 69.3968C73.1785 61.695 88.6245 46.9675 85.1017 36.502C81.5789 26.0365 60.4213 23.7961 37.845 31.498C15.2686 39.1998 -0.177417 53.9273 3.34537 64.3928C6.86817 74.8582 28.0257 77.0986 50.6021 69.3968Z" stroke="url(#paint8_linear_403_8185)" stroke-width="0.8" stroke-miterlimit="10"></path>
<path d="M50.8857 68.4315C72.8549 59.5182 87.3596 44.0372 83.2829 33.8536C79.2061 23.67 58.0917 22.6402 36.1225 31.5535C14.1533 40.4667 -0.351401 55.9478 3.72534 66.1314C7.80207 76.315 28.9165 77.3448 50.8857 68.4315Z" stroke="url(#paint9_linear_403_8185)" stroke-width="0.8" stroke-miterlimit="10"></path>
<path d="M51.1668 67.4713C72.5269 57.3479 86.0883 41.113 81.4571 31.2095C76.8258 21.306 55.7557 21.4842 34.3956 31.6076C13.0355 41.7309 -0.525903 57.9659 4.10535 67.8693C8.7366 77.7728 29.8067 77.5946 51.1668 67.4713Z" stroke="url(#paint10_linear_403_8185)" stroke-width="0.8" stroke-miterlimit="10"></path>
<path d="M51.4534 66.4959C72.2031 55.1588 84.8196 38.1693 79.6331 28.5488C74.4466 18.9283 53.4211 20.3199 32.6713 31.6569C11.9216 42.994 -0.69491 59.9835 4.49161 69.604C9.67813 79.2245 30.7036 77.833 51.4534 66.4959Z" stroke="url(#paint11_linear_403_8185)" stroke-width="0.8" stroke-miterlimit="10"></path>
<path d="M51.731 65.5291C71.8726 52.9814 83.5482 35.2408 77.8092 25.9044C72.0702 16.568 51.0898 19.1712 30.9481 31.7189C10.8065 44.2666 -0.869078 62.0071 4.86996 71.3436C10.609 80.68 31.5894 78.0768 51.731 65.5291Z" stroke="url(#paint12_linear_403_8185)" stroke-width="0.8" stroke-miterlimit="10"></path>
<path d="M52.0183 64.5522C71.5502 50.7891 82.2815 32.2932 75.9873 23.2405C69.693 14.1877 48.7569 18.0062 29.225 31.7692C9.6931 45.5323 -1.03816 64.0282 5.25605 73.0809C11.5503 82.1337 32.4864 78.3152 52.0183 64.5522Z" stroke="url(#paint13_linear_403_8185)" stroke-width="0.8" stroke-miterlimit="10"></path>
<path d="M52.2931 63.5765C71.2163 48.6016 81.004 29.3509 74.1546 20.5789C67.3051 11.807 46.4123 16.8354 27.4891 31.8103C8.56587 46.7852 -1.22184 66.0359 5.62761 74.8079C12.4771 83.5798 33.3699 78.5514 52.2931 63.5765Z" stroke="url(#paint14_linear_403_8185)" stroke-width="0.8" stroke-miterlimit="10"></path>
<path d="M52.5674 62.6144C70.883 46.4272 79.7301 26.4238 72.328 17.9356C64.9259 9.44737 44.0776 15.6887 25.762 31.8759C7.44636 48.0632 -1.40076 68.0666 6.00138 76.5548C13.4035 85.043 34.2518 78.8017 52.5674 62.6144Z" stroke="url(#paint15_linear_403_8185)" stroke-width="0.8" stroke-miterlimit="10"></path>
<path d="M52.8495 61.6423C70.5535 44.2437 78.4558 23.4881 70.4998 15.2834C62.5438 7.07876 41.7423 14.532 24.0383 31.9306C6.33433 49.3292 -1.56798 70.0848 6.38801 78.2894C14.344 86.4941 35.1455 79.0409 52.8495 61.6423Z" stroke="url(#paint16_linear_403_8185)" stroke-width="0.8" stroke-miterlimit="10"></path>
<path d="M53.1338 60.6742C70.2292 42.0629 77.1882 20.5524 68.6771 12.6293C60.166 4.70609 39.4078 13.3705 22.3124 31.9819C5.21697 50.5932 -1.74198 72.1037 6.76913 80.0268C15.2802 87.95 36.0384 79.2856 53.1338 60.6742Z" stroke="url(#paint17_linear_403_8185)" stroke-width="0.8" stroke-miterlimit="10"></path>
<path d="M53.4113 59.7038C69.8984 39.8812 75.9167 17.6184 66.8533 9.97857C57.79 2.33874 37.0772 12.2149 20.59 32.0376C4.10281 51.8602 -1.9154 74.123 7.14794 81.7628C16.2113 89.4026 36.9241 79.5265 53.4113 59.7038Z" stroke="url(#paint18_linear_403_8185)" stroke-width="0.8" stroke-miterlimit="10"></path>
<path d="M53.6933 58.7288C69.5702 37.6942 74.6445 14.6781 65.0269 7.32098C55.4093 -0.0361572 34.7419 11.0516 18.8649 32.0863C2.988 53.1209 -2.08622 76.137 7.53136 83.4941C17.1489 90.8513 37.8163 79.7635 53.6933 58.7288Z" stroke="url(#paint19_linear_403_8185)" stroke-width="0.8" stroke-miterlimit="10"></path>
<path d="M53.9756 57.7592C69.2423 35.5136 73.3726 11.7449 63.2009 4.67027C53.0293 -2.40434 32.4074 9.89417 17.1408 32.1397C1.87412 54.3853 -2.25619 78.1541 7.91546 85.2287C18.0871 92.3033 38.7089 80.0048 53.9756 57.7592Z" stroke="url(#paint20_linear_403_8185)" stroke-width="0.8" stroke-miterlimit="10"></path>
<path d="M54.2592 56.8064C68.9208 33.3497 72.1111 8.82611 61.385 2.03143C50.6589 -4.76325 30.078 8.74399 15.4164 32.2007C0.754743 55.6574 -2.43561 80.181 8.29053 86.9757C19.0167 93.7704 39.5975 80.2632 54.2592 56.8064Z" stroke="url(#paint21_linear_403_8185)" stroke-width="0.8" stroke-miterlimit="10"></path>
</g>
<defs>
<linearGradient id="paint0_linear_403_8185" x1="23.8617" y1="35.2138" x2="23.7097" y2="78.3638" gradientUnits="userSpaceOnUse">
<stop stop-color="#ffca2f"></stop>
<stop offset="1" stop-color="#234290"></stop>
</linearGradient>
<linearGradient id="paint1_linear_403_8185" x1="23.0028" y1="36.3365" x2="24.6804" y2="78.3983" gradientUnits="userSpaceOnUse">
<stop stop-color="#ffca2f"></stop>
<stop offset="1" stop-color="#234290"></stop>
</linearGradient>
<linearGradient id="paint2_linear_403_8185" x1="83.2034" y1="40.5065" x2="3.0489" y2="67.7235" gradientUnits="userSpaceOnUse">
<stop stop-color="#ffca2f"></stop>
<stop offset="1" stop-color="#234290"></stop>
</linearGradient>
<linearGradient id="paint3_linear_403_8185" x1="81.1217" y1="38.7167" x2="4.00399" y2="69.0187" gradientUnits="userSpaceOnUse">
<stop stop-color="#ffca2f"></stop>
<stop offset="1" stop-color="#234290"></stop>
</linearGradient>
<linearGradient id="paint4_linear_403_8185" x1="79.0406" y1="36.9383" x2="4.95124" y2="70.3329" gradientUnits="userSpaceOnUse">
<stop stop-color="#ffca2f"></stop>
<stop offset="1" stop-color="#234290"></stop>
</linearGradient>
<linearGradient id="paint5_linear_403_8185" x1="76.9461" y1="35.1546" x2="5.88961" y2="71.6355" gradientUnits="userSpaceOnUse">
<stop stop-color="#ffca2f"></stop>
<stop offset="1" stop-color="#234290"></stop>
</linearGradient>
<linearGradient id="paint6_linear_403_8185" x1="74.8701" y1="33.3712" x2="6.84831" y2="72.9618" gradientUnits="userSpaceOnUse">
<stop stop-color="#ffca2f"></stop>
<stop offset="1" stop-color="#234290"></stop>
</linearGradient>
<linearGradient id="paint7_linear_403_8185" x1="72.7814" y1="31.5865" x2="7.79142" y2="74.2724" gradientUnits="userSpaceOnUse">
<stop stop-color="#ffca2f"></stop>
<stop offset="1" stop-color="#234290"></stop>
</linearGradient>
<linearGradient id="paint8_linear_403_8185" x1="70.6985" y1="29.7927" x2="8.75395" y2="75.5998" gradientUnits="userSpaceOnUse">
<stop stop-color="#ffca2f"></stop>
<stop offset="1" stop-color="#234290"></stop>
</linearGradient>
<linearGradient id="paint9_linear_403_8185" x1="68.6208" y1="28.0096" x2="9.7065" y2="76.9351" gradientUnits="userSpaceOnUse">
<stop stop-color="#ffca2f"></stop>
<stop offset="1" stop-color="#234290"></stop>
</linearGradient>
<linearGradient id="paint10_linear_403_8185" x1="66.5365" y1="26.2284" x2="10.6549" y2="78.2687" gradientUnits="userSpaceOnUse">
<stop stop-color="#ffca2f"></stop>
<stop offset="1" stop-color="#234290"></stop>
</linearGradient>
<linearGradient id="paint11_linear_403_8185" x1="64.4539" y1="24.4353" x2="11.6208" y2="79.6086" gradientUnits="userSpaceOnUse">
<stop stop-color="#ffca2f"></stop>
<stop offset="1" stop-color="#234290"></stop>
</linearGradient>
<linearGradient id="paint12_linear_403_8185" x1="62.373" y1="22.6581" x2="12.5887" y2="80.9632" gradientUnits="userSpaceOnUse">
<stop stop-color="#ffca2f"></stop>
<stop offset="1" stop-color="#234290"></stop>
</linearGradient>
<linearGradient id="paint13_linear_403_8185" x1="60.2922" y1="20.8632" x2="13.5695" y2="82.3154" gradientUnits="userSpaceOnUse">
<stop stop-color="#ffca2f"></stop>
<stop offset="1" stop-color="#234290"></stop>
</linearGradient>
<linearGradient id="paint14_linear_403_8185" x1="58.2001" y1="19.0662" x2="14.5325" y2="83.6559" gradientUnits="userSpaceOnUse">
<stop stop-color="#ffca2f"></stop>
<stop offset="1" stop-color="#234290"></stop>
</linearGradient>
<linearGradient id="paint15_linear_403_8185" x1="56.1162" y1="17.2905" x2="15.5162" y2="85.0243" gradientUnits="userSpaceOnUse">
<stop stop-color="#ffca2f"></stop>
<stop offset="1" stop-color="#234290"></stop>
</linearGradient>
<linearGradient id="paint16_linear_403_8185" x1="54.0313" y1="15.5053" x2="16.511" y2="86.3749" gradientUnits="userSpaceOnUse">
<stop stop-color="#ffca2f"></stop>
<stop offset="1" stop-color="#234290"></stop>
</linearGradient>
<linearGradient id="paint17_linear_403_8185" x1="51.9492" y1="13.7167" x2="17.5043" y2="87.7283" gradientUnits="userSpaceOnUse">
<stop stop-color="#ffca2f"></stop>
<stop offset="1" stop-color="#234290"></stop>
</linearGradient>
<linearGradient id="paint18_linear_403_8185" x1="49.8688" y1="11.9328" x2="18.5088" y2="89.0818" gradientUnits="userSpaceOnUse">
<stop stop-color="#ffca2f"></stop>
<stop offset="1" stop-color="#234290"></stop>
</linearGradient>
<linearGradient id="paint19_linear_403_8185" x1="47.7847" y1="10.1417" x2="19.5161" y2="90.4252" gradientUnits="userSpaceOnUse">
<stop stop-color="#ffca2f"></stop>
<stop offset="1" stop-color="#234290"></stop>
</linearGradient>
<linearGradient id="paint20_linear_403_8185" x1="45.7013" y1="8.35673" x2="20.5266" y2="91.7692" gradientUnits="userSpaceOnUse">
<stop stop-color="#ffca2f"></stop>
<stop offset="1" stop-color="#234290"></stop>
</linearGradient>
<linearGradient id="paint21_linear_403_8185" x1="43.6249" y1="6.58115" x2="21.5309" y2="93.1256" gradientUnits="userSpaceOnUse">
<stop stop-color="#ffca2f"></stop>
<stop offset="1" stop-color="#234290"></stop>
</linearGradient>
</defs>
</svg>